<svg id="Component_6_1" data-name="Component 6 – 1" xmlns="http://www.w3.org/2000/svg" width="65" height="64" viewBox="0 0 65 64">
  <ellipse id="Ellipse_11" data-name="Ellipse 11" cx="32.5" cy="32" rx="32.5" ry="32" fill="#fff"/>
  <path id="Icon_material-add-a-photo" data-name="Icon material-add-a-photo" d="M5.4,6.9V1.5H9V6.9h5.4v3.6H9v5.4H5.4V10.5H0V6.9Zm5.4,10.8V12.3h5.4V6.9H28.788l3.293,3.6h5.7a3.609,3.609,0,0,1,3.6,3.6V35.686a3.609,3.609,0,0,1-3.6,3.6H9a3.609,3.609,0,0,1-3.6-3.6V17.693ZM23.391,33.887a9,9,0,1,0-9-9A9,9,0,0,0,23.391,33.887Zm-5.758-9a5.758,5.758,0,1,0,5.758-5.758A5.751,5.751,0,0,0,17.633,24.891Z" transform="translate(9.55 9.25)" fill="#6593ae"/>
</svg>
