<svg id="Component_6_1" data-name="Component 6 – 1" xmlns="http://www.w3.org/2000/svg" width="195.611" height="251.819" viewBox="0 0 195.611 251.819">
  <path id="Icon_awesome-home" data-name="Icon awesome-home" d="M95.211,41.716,32.6,93.28v55.653a5.433,5.433,0,0,0,5.433,5.433l38.053-.1a5.433,5.433,0,0,0,5.406-5.433v-32.5a5.433,5.433,0,0,1,5.433-5.433h21.733a5.433,5.433,0,0,1,5.433,5.433v32.477a5.433,5.433,0,0,0,5.433,5.45l38.039.105A5.433,5.433,0,0,0,163,148.933V93.243L100.407,41.716A4.139,4.139,0,0,0,95.211,41.716Zm98.895,35.048-28.389-23.4V6.328a4.075,4.075,0,0,0-4.075-4.075H142.626a4.075,4.075,0,0,0-4.075,4.075V30.985l-30.4-25.013a16.3,16.3,0,0,0-20.714,0L1.478,76.763A4.075,4.075,0,0,0,.935,82.5L9.594,93.029a4.075,4.075,0,0,0,5.742.554L95.211,27.793a4.139,4.139,0,0,1,5.2,0l79.878,65.789a4.075,4.075,0,0,0,5.739-.543l8.659-10.527a4.075,4.075,0,0,0-.577-5.749Z" transform="translate(0.001 97.452)" fill="#6593ae"/>
  <path id="Icon_awesome-heart" data-name="Icon awesome-heart" d="M39.152,4.842C34.511.887,27.609,1.6,23.349,5.994L21.681,7.713,20.012,5.994C15.761,1.6,8.85.887,4.209,4.842a12.161,12.161,0,0,0-.838,17.607L19.758,39.37a2.655,2.655,0,0,0,3.836,0L39.982,22.449a12.153,12.153,0,0,0-.83-17.607Z" transform="translate(131.675 51.132)" fill="#6593ae"/>
  <path id="Icon_awesome-heart-2" data-name="Icon awesome-heart" d="M27.409,4.064a8.108,8.108,0,0,0-11.063.806l-1.168,1.2L14.01,4.87A8.107,8.107,0,0,0,2.946,4.064,8.513,8.513,0,0,0,2.36,16.39L13.832,28.236a1.859,1.859,0,0,0,2.686,0L27.99,16.39a8.508,8.508,0,0,0-.581-12.326Z" transform="translate(158.535 12.375)" fill="#6593ae"/>
  <path id="Icon_awesome-heart-3" data-name="Icon awesome-heart" d="M19.709,3.554a5.83,5.83,0,0,0-7.955.58L10.914,5l-.84-.865a5.83,5.83,0,0,0-7.955-.58A6.122,6.122,0,0,0,1.7,12.417l8.25,8.518a1.337,1.337,0,0,0,1.931,0l8.25-8.518a6.118,6.118,0,0,0-.418-8.864Z" transform="translate(130.481 -2.248)" fill="#6593ae"/>
</svg>
