<svg xmlns="http://www.w3.org/2000/svg" width="25.607" height="17.285" viewBox="0 0 25.607 17.285">
  <path id="Icon_zocial-email" data-name="Icon zocial-email" d="M.072,19.822V5.6q0-.025.074-.469l8.371,7.161L.171,20.316a2.093,2.093,0,0,1-.1-.494ZM1.183,4.142a1.064,1.064,0,0,1,.42-.074H24.148a1.4,1.4,0,0,1,.444.074l-8.4,7.186-1.111.889-2.2,1.8-2.2-1.8-1.111-.889Zm.025,17.137L9.628,13.2l3.259,2.642L16.147,13.2l8.42,8.075a1.186,1.186,0,0,1-.42.074H1.6a1.118,1.118,0,0,1-.4-.074Zm16.05-8.988L25.6,5.13a1.474,1.474,0,0,1,.074.469V19.822a1.893,1.893,0,0,1-.074.494Z" transform="translate(-0.072 -4.068)" fill="#707070"/>
</svg>
