<svg xmlns="http://www.w3.org/2000/svg" width="23.992" height="23.992" viewBox="0 0 23.992 23.992">
  <path id="Icon_awesome-phone-alt" data-name="Icon awesome-phone-alt" d="M23.308,16.954,18.059,14.7a1.125,1.125,0,0,0-1.312.323l-2.324,2.84a17.369,17.369,0,0,1-8.3-8.3L8.96,7.241a1.122,1.122,0,0,0,.323-1.312L7.034.68A1.132,1.132,0,0,0,5.745.029L.872,1.153A1.125,1.125,0,0,0,0,2.249,21.741,21.741,0,0,0,21.743,23.993a1.125,1.125,0,0,0,1.1-.872l1.125-4.873a1.138,1.138,0,0,0-.657-1.293Z" transform="translate(0 0)" fill="#707070"/>
</svg>
