<svg xmlns="http://www.w3.org/2000/svg" width="164.422" height="107.419" viewBox="0 0 164.422 107.419">
  <path id="Icon_awesome-truck-moving" data-name="Icon awesome-truck-moving" d="M159.617,51.476,144.588,37.449a17.066,17.066,0,0,0-11.638-4.484h-9.634V9.923A7.953,7.953,0,0,0,115.1,2.25H8.221A7.953,7.953,0,0,0,0,9.923V90.487c0,10.6,9.2,19.182,20.553,19.182A21.018,21.018,0,0,0,36.995,101.9a20.944,20.944,0,0,0,16.442,7.769c11.355,0,20.553-8.584,20.553-19.182a18.908,18.908,0,0,0-.411-3.836h41.927a17.245,17.245,0,0,0-.411,3.836c0,10.6,9.2,19.182,20.553,19.182S156.2,101.085,156.2,90.487a18.909,18.909,0,0,0-.411-3.836h4.522a3.992,3.992,0,0,0,4.111-3.836v-20.5A14.8,14.8,0,0,0,159.617,51.476ZM20.553,98.16a7.691,7.691,0,1,1,0-15.346,7.691,7.691,0,1,1,0,15.346Zm32.884,0a7.691,7.691,0,1,1,8.221-7.673A7.985,7.985,0,0,1,53.437,98.16Zm69.879-53.71h9.634a4.232,4.232,0,0,1,2.9,1.127l11.124,10.382H123.316Zm12.332,53.71a7.691,7.691,0,1,1,8.221-7.673A7.985,7.985,0,0,1,135.648,98.16Z" transform="translate(0 -2.25)" fill="#6593ae"/>
</svg>
